<svg width="40" height="35" viewBox="0 0 40 35" fill="none" xmlns="http://www.w3.org/2000/svg">
<path d="M4 35C2.9 35 1.958 34.5712 1.174 33.7137C0.390003 32.8562 -0.00132994 31.8267 3.39559e-06 30.625V4.375C3.39559e-06 3.17188 0.392003 2.14157 1.176 1.28407C1.96 0.426566 2.90134 -0.00145462 4 3.71392e-06H36C37.1 3.71392e-06 38.042 0.428753 38.826 1.28625C39.61 2.14375 40.0013 3.17334 40 4.375V30.625C40 31.8281 39.608 32.8584 38.824 33.7159C38.04 34.5734 37.0987 35.0015 36 35H4ZM20 19.6875L36 8.75V4.375L20 15.3125L4 4.375V8.75L20 19.6875Z" fill="#D14D72"/>
</svg>
